<?xml version="1.0" encoding="UTF-8"?>
<svg id="Layer_2" data-name="Layer 2" xmlns="http://www.w3.org/2000/svg" viewBox="0 0 694.37 153.09">
  <defs>
    <style>
      .cls-1 {
        fill: #ca7659;
      }

      .cls-2 {
        fill: #eaeaea;
      }
    </style>
  </defs>
  <g id="Layer_1-2" data-name="Layer 1">
    <g>
      <g>
        <polygon class="cls-1" points="133.96 114.42 133.96 37.08 132.5 36.24 132.5 115.26 133.96 114.42"/>
        <polygon class="cls-1" points="125.53 32.21 125.53 119.29 126.98 118.44 126.98 33.05 125.53 32.21"/>
        <polygon class="cls-1" points="118.55 28.18 118.55 123.31 120.01 122.47 120.01 29.02 118.55 28.18"/>
        <polygon class="cls-1" points="111.58 24.16 111.58 127.34 113.04 126.5 113.04 25 111.58 24.16"/>
        <polygon class="cls-1" points="104.61 20.13 104.61 131.36 106.06 130.52 106.06 20.97 104.61 20.13"/>
        <polygon class="cls-1" points="97.63 16.11 97.63 135.39 99.09 134.55 99.09 16.95 97.63 16.11"/>
        <polygon class="cls-1" points="90.66 12.08 90.66 139.42 92.12 138.58 92.12 12.92 90.66 12.08"/>
        <polygon class="cls-1" points="83.69 8.05 83.69 143.44 85.14 142.6 85.14 8.89 83.69 8.05"/>
        <polygon class="cls-1" points="76.71 4.03 76.71 147.47 78.17 146.63 78.17 4.87 76.71 4.03"/>
        <polygon class="cls-1" points="69.74 0 69.74 151.5 71.19 150.66 71.19 .84 69.74 0"/>
        <polygon class="cls-1" points="62.76 .84 62.76 150.66 64.22 151.5 64.22 0 62.76 .84"/>
        <polygon class="cls-1" points="55.79 4.87 55.79 146.63 57.25 147.47 57.25 4.03 55.79 4.87"/>
        <polygon class="cls-1" points="48.82 8.89 48.82 142.6 50.27 143.44 50.27 8.05 48.82 8.89"/>
        <polygon class="cls-1" points="41.84 12.92 41.84 138.58 43.3 139.42 43.3 12.08 41.84 12.92"/>
        <polygon class="cls-1" points="34.87 16.95 34.87 134.55 36.32 135.39 36.32 16.11 34.87 16.95"/>
        <polygon class="cls-1" points="27.9 20.97 27.9 130.52 29.35 131.36 29.35 20.13 27.9 20.97"/>
        <polygon class="cls-1" points="20.92 25 20.92 126.5 22.38 127.34 22.38 24.16 20.92 25"/>
        <polygon class="cls-1" points="13.95 29.02 13.95 122.47 15.4 123.31 15.4 28.18 13.95 29.02"/>
        <polygon class="cls-1" points="6.97 33.05 6.97 118.44 8.43 119.29 8.43 32.21 6.97 33.05"/>
        <polygon class="cls-1" points="0 37.08 0 114.42 1.46 115.26 1.46 36.24 0 37.08"/>
      </g>
      <polygon class="cls-1" points="131.05 58.71 131.05 116.1 132.5 115.26 132.5 59.55 131.05 58.71"/>
      <polygon class="cls-1" points="124.07 54.68 124.07 120.13 125.53 119.29 125.53 55.52 124.07 54.68"/>
      <polygon class="cls-1" points="117.1 50.65 117.1 124.15 118.55 123.31 118.55 51.49 117.1 50.65"/>
      <polygon class="cls-1" points="110.12 46.63 110.12 128.18 111.58 127.34 111.58 47.47 110.12 46.63"/>
      <polygon class="cls-1" points="103.15 42.6 103.15 132.2 104.61 131.36 104.61 43.44 103.15 42.6"/>
      <polygon class="cls-1" points="96.18 38.57 96.18 136.23 97.63 135.39 97.63 39.42 96.18 38.57"/>
      <polygon class="cls-1" points="89.2 34.55 89.2 140.26 90.66 139.42 90.66 35.39 89.2 34.55"/>
      <polygon class="cls-1" points="82.23 30.52 82.23 144.28 83.69 143.44 83.69 31.36 82.23 30.52"/>
      <polygon class="cls-1" points="75.26 26.5 75.26 148.31 76.71 147.47 76.71 27.34 75.26 26.5"/>
      <polygon class="cls-1" points="68.28 22.47 68.28 152.34 69.74 151.5 69.74 23.31 68.28 22.47"/>
      <polygon class="cls-1" points="62.76 22.47 61.31 23.31 61.31 149.81 62.76 150.66 62.76 22.47"/>
      <polygon class="cls-1" points="54.33 27.34 54.33 145.79 55.79 146.63 55.79 26.5 54.33 27.34"/>
      <polygon class="cls-1" points="47.36 31.36 47.36 141.76 48.82 142.6 48.82 30.52 47.36 31.36"/>
      <polygon class="cls-1" points="40.39 35.39 40.39 137.74 41.84 138.58 41.84 34.55 40.39 35.39"/>
      <polygon class="cls-1" points="33.41 39.42 33.41 133.71 34.87 134.55 34.87 38.57 33.41 39.42"/>
      <polygon class="cls-1" points="26.44 43.44 26.44 129.68 27.9 130.52 27.9 42.6 26.44 43.44"/>
      <polygon class="cls-1" points="19.47 47.47 19.47 125.66 20.92 126.5 20.92 46.63 19.47 47.47"/>
      <polygon class="cls-1" points="12.49 51.49 12.49 121.63 13.95 122.47 13.95 50.65 12.49 51.49"/>
      <polygon class="cls-1" points="5.52 55.52 5.52 117.6 6.97 118.44 6.97 54.68 5.52 55.52"/>
      <polygon class="cls-1" points="129.59 88.74 129.59 116.94 131.05 116.1 131.05 89.58 129.59 88.74"/>
      <polygon class="cls-1" points="122.62 84.71 122.62 120.97 124.07 120.13 124.07 85.55 122.62 84.71"/>
      <polygon class="cls-1" points="115.64 80.68 115.64 124.99 117.1 124.15 117.1 81.52 115.64 80.68"/>
      <polygon class="cls-1" points="108.67 76.66 108.67 129.02 110.12 128.18 110.12 77.5 108.67 76.66"/>
      <polygon class="cls-1" points="101.69 72.63 101.69 133.05 103.15 132.2 103.15 73.47 101.69 72.63"/>
      <polygon class="cls-1" points="94.72 68.6 94.72 137.07 96.18 136.23 96.18 69.44 94.72 68.6"/>
      <polygon class="cls-1" points="87.75 64.58 87.75 141.1 89.2 140.26 89.2 65.42 87.75 64.58"/>
      <polygon class="cls-1" points="80.77 60.55 80.77 145.12 82.23 144.28 82.23 61.39 80.77 60.55"/>
      <polygon class="cls-1" points="73.8 56.53 73.8 149.15 75.26 148.31 75.26 57.37 73.8 56.53"/>
      <polygon class="cls-1" points="66.83 52.5 66.83 153 66.98 153.09 68.28 152.34 68.28 53.34 66.83 52.5"/>
      <polygon class="cls-1" points="61.31 52.5 59.85 53.34 59.85 148.97 61.31 149.81 61.31 52.5"/>
      <polygon class="cls-1" points="52.88 57.37 52.88 144.95 54.33 145.79 54.33 56.53 52.88 57.37"/>
      <polygon class="cls-1" points="45.9 61.39 45.9 140.92 47.36 141.76 47.36 60.55 45.9 61.39"/>
      <polygon class="cls-1" points="38.93 65.42 38.93 136.89 40.39 137.74 40.39 64.58 38.93 65.42"/>
      <polygon class="cls-1" points="31.96 69.44 31.96 132.87 33.41 133.71 33.41 68.6 31.96 69.44"/>
      <polygon class="cls-1" points="24.98 73.47 24.98 128.84 26.44 129.68 26.44 72.63 24.98 73.47"/>
      <polygon class="cls-1" points="18.01 77.5 18.01 124.82 19.47 125.66 19.47 76.66 18.01 77.5"/>
      <polygon class="cls-1" points="11.04 81.52 11.04 120.79 12.49 121.63 12.49 80.68 11.04 81.52"/>
      <polygon class="cls-1" points="4.06 85.55 4.06 116.76 5.52 117.6 5.52 84.71 4.06 85.55"/>
    </g>
    <g>
      <path class="cls-2" d="M219.2,52.61l-3.1,1.38c-1.61-5.9-3.81-9.81-6.61-11.73-2.8-1.92-6.34-2.88-10.64-2.88s-7.76,1.09-9.95,3.28-3.28,4.73-3.28,7.65c0,2.22.65,4.45,1.95,6.67,1.3,2.22,3.22,4.18,5.75,5.87l18.17,11.84c7.97,5.21,11.96,11.38,11.96,18.51,0,3.45-.96,6.83-2.88,10.12-1.92,3.3-4.79,6-8.62,8.11-3.83,2.11-8.66,3.16-14.49,3.16-3.99,0-8.18-.38-12.59-1.15-4.41-.77-8.11-1.76-11.1-2.99.38-2.07.79-4.5,1.21-7.3.42-2.8.63-6,.63-9.6l3.1-1.38c.77,4.14,1.8,7.42,3.1,9.83,1.3,2.42,3.09,4.14,5.35,5.17,2.26,1.04,5.19,1.55,8.8,1.55s6.42-.63,8.68-1.9c2.26-1.26,3.97-2.86,5.12-4.77,1.15-1.92,1.73-3.95,1.73-6.09,0-4.68-2.49-8.62-7.48-11.85l-18.4-12.07c-3.6-2.38-6.27-5.12-7.99-8.22-1.73-3.11-2.59-6.27-2.59-9.49,0-3.53.96-6.86,2.88-10.01,1.92-3.14,4.64-5.71,8.17-7.7,3.53-1.99,7.74-2.99,12.65-2.99,2.15,0,3.97.13,5.46.4,1.5.27,2.89.56,4.2.86,1.3.31,2.72.46,4.26.46s3.26-.23,5.17-.69v1.72c0,1.53.08,3.32.23,5.35.15,2.03.33,4.02.52,5.98.19,1.96.4,3.58.63,4.89Z"/>
      <path class="cls-2" d="M264.74,105.28l1.38,3.79c-2.61,1.69-5.1,3.01-7.48,3.97-2.38.96-4.79,1.44-7.25,1.44-3.3,0-6.11-.8-8.45-2.42-2.34-1.61-3.51-4.64-3.51-9.08.08-3.76.12-7,.12-9.72v-7.76c0-3.83-.02-7.34-.06-10.52-.04-3.18-.1-5.92-.17-8.22-2.3.08-4.75.11-7.36.11l-.35-1.26,2.65-4.49c1.61.23,3.22.38,4.83.46,0-1.53-.04-3.12-.12-4.77-.08-1.65-.19-3.58-.34-5.81l7.59-6.79,2.19,1.04c-.08,3.3-.13,6.17-.17,8.62-.04,2.45-.06,4.98-.06,7.59,5.21,0,10.85-.04,16.9-.12l.58,1.38-4.14,4.6c-4.14-.3-8.59-.5-13.34-.57v15.41c0,4.6.02,8.39.06,11.38.04,2.99.13,6.06.29,9.2.15,1.92.81,3.26,1.96,4.02,1.15.77,2.53,1.15,4.14,1.15,1.76,0,3.58-.31,5.46-.92,1.88-.61,3.43-1.19,4.66-1.73Z"/>
      <path class="cls-2" d="M316.83,107.46l1.15,2.99c-2.91,2.68-6.09,4.03-9.54,4.03-1.92,0-3.64-.59-5.17-1.78-1.53-1.19-2.49-3.08-2.88-5.69-2.84,2.15-5.65,3.93-8.45,5.35-2.8,1.42-5.81,2.13-9.03,2.13s-5.81-.96-8.22-2.88c-2.42-1.92-3.62-4.95-3.62-9.08,0-2.76.88-5.46,2.65-8.11,1.76-2.65,4.77-4.91,9.03-6.79,4.25-1.88,10.02-3.05,17.31-3.51v-10.69c0-2.22-.82-3.89-2.47-5-1.65-1.11-3.62-1.67-5.92-1.67-3.37,0-5.86.8-7.47,2.42-1.61,1.61-2.42,3.6-2.42,5.98,0,.92.11,1.96.34,3.11l-2.53,1.15c-1.61-.84-3.07-2.01-4.37-3.51-1.3-1.5-1.96-2.55-1.96-3.16,0-.54.48-1.46,1.44-2.76.96-1.3,2.4-2.68,4.31-4.14,1.92-1.46,4.25-2.7,7.02-3.74,2.76-1.03,5.94-1.55,9.54-1.55,2.38,0,4.54.34,6.5,1.03,1.96.69,3.51,1.92,4.66,3.68,1.15,1.76,1.73,4.29,1.73,7.59,0,.77.02,2.15.06,4.14.04,2,.1,4.29.17,6.9.08,2.61.13,5.23.17,7.88.04,2.65.1,4.96.17,6.96.08,1.99.11,3.37.11,4.14.08,2.07.52,3.51,1.32,4.31.81.81,1.74,1.21,2.82,1.21.46,0,1-.08,1.61-.23.61-.15,1.27-.38,1.96-.69ZM300.04,102.63v-13.34c-6.75.15-11.65,1.42-14.72,3.79-3.07,2.38-4.6,4.91-4.6,7.59,0,2.3.69,4.02,2.07,5.17,1.38,1.15,3.18,1.72,5.41,1.72,1.69,0,3.54-.4,5.58-1.21,2.03-.8,4.12-2.05,6.27-3.74Z"/>
      <path class="cls-2" d="M366.16,103.09l1.38,3.79c-2.61,2.07-5.58,3.85-8.91,5.35s-7.15,2.24-11.44,2.24c-5.37,0-9.83-1.13-13.4-3.39-3.56-2.26-6.21-5.35-7.94-9.26-1.73-3.91-2.59-8.28-2.59-13.11,0-3.45.56-6.84,1.67-10.18,1.11-3.33,2.76-6.36,4.94-9.08,2.19-2.72,4.91-4.89,8.17-6.5,3.26-1.61,7.07-2.42,11.44-2.42,3.3,0,6.25.56,8.85,1.67,2.61,1.11,4.68,2.3,6.21,3.57,1.53,1.26,2.3,2.13,2.3,2.59,0,1-.23,2.32-.69,3.97-.46,1.65-1.15,3.12-2.07,4.43h-2.76c-.46-1.3-1.23-2.72-2.3-4.25-1.07-1.53-2.49-2.88-4.25-4.03-1.76-1.15-3.95-1.72-6.55-1.72-3.37,0-6.17,1.05-8.4,3.16-2.22,2.11-3.85,4.79-4.89,8.05-1.04,3.26-1.55,6.58-1.55,9.95,0,6.98,1.57,12.02,4.72,15.12,3.14,3.1,7.17,4.66,12.07,4.66,2.45,0,5.14-.4,8.05-1.21,2.91-.81,5.56-1.94,7.94-3.39Z"/>
      <path class="cls-2" d="M429.53,110.45l-.35,3.34c-1.3,0-2.95.04-4.94.11-1.99.08-3.91.17-5.75.29-1.84.11-3.22.21-4.14.29l-21.27-29.67-3.56,2.64c.15,7.51.34,12.77.57,15.76.23,2.99.35,4.56.35,4.71.08.38.56.77,1.44,1.15.88.38,1.9.69,3.05.92,1.15.23,2.11.38,2.88.46l-.34,3.34c-1.84-.16-3.87-.25-6.1-.29-2.22-.04-4.33-.06-6.32-.06s-4.08.02-6.5.06c-2.42.04-4.54.13-6.38.29l.35-3.34c.84-.08,1.8-.23,2.88-.46,1.07-.23,2.05-.54,2.93-.92.88-.38,1.36-.76,1.44-1.15.23-2.22.4-4.7.52-7.42.11-2.72.23-6.48.34-11.27.12-4.79.17-10.87.17-18.23s-.04-13.42-.11-17.94c-.08-4.52-.19-7.97-.35-10.35-.15-2.38-.31-4.37-.46-5.98l-7.36-2.18-.23-2.99c1.38,0,3.01-.09,4.89-.29,1.88-.19,3.74-.46,5.58-.81,1.84-.34,3.41-.67,4.72-.98l2.18,1.04c-.15,14.26-.23,28.41-.23,42.44v9.2l18.4-13.8c.54-.46.8-.92.8-1.38,0-.61-.54-1.19-1.61-1.72-1.07-.54-2.84-.84-5.29-.92l.35-3.33c1.61.08,2.91.13,3.91.17,1,.04,2.05.08,3.16.12,1.11.04,2.59.06,4.43.06,2.84,0,5.08-.04,6.73-.12,1.65-.08,3.66-.15,6.04-.23l.35,3.33c-3.14.46-5.65,1.15-7.53,2.07-1.88.92-3.43,1.8-4.66,2.65l-14.26,10.58,21.62,28.87c.69,1,1.84,1.53,3.45,1.61,1.61.08,3.03.19,4.25.34Z"/>
      <path class="cls-1" d="M454.37,75.84c0,7.67.08,13.67.23,18,.15,4.33.38,8.22.69,11.67.15,1.46.96,2.47,2.42,3.05,1.46.58,3.91,1.21,7.36,1.9l-.35,3.34c-2.38-.16-4.79-.25-7.25-.29-2.45-.04-5.14-.06-8.05-.06-5.98,0-11.39.12-16.21.35l-.35-3.34c3.45-.69,5.98-1.32,7.59-1.9,1.61-.57,2.49-1.59,2.65-3.05.31-3.6.54-7.69.69-12.25.15-4.56.23-10.94.23-19.15s-.08-14.7-.23-19.26c-.15-4.56-.38-8.64-.69-12.25-.15-1.46-.9-2.47-2.24-3.05-1.34-.57-3.74-1.21-7.19-1.9l.34-3.33c1.61.08,2.91.13,3.91.17,1,.04,2.03.08,3.1.12,1.07.04,2.57.06,4.48.06h15.81c5.56,0,10.81-.06,15.76-.17,4.94-.12,8.99-.29,12.13-.52v1.72c0,1.61.06,3.49.17,5.64.12,2.15.29,4.24.52,6.27.23,2.03.46,3.7.69,5l-3.1,1.38c-1-3.22-2.05-5.81-3.16-7.76-1.11-1.96-2.49-3.41-4.14-4.37-1.65-.96-3.72-1.59-6.21-1.9-2.49-.31-5.58-.46-9.26-.46-2.76,0-4.96.1-6.61.29-1.65.19-2.55.94-2.7,2.24-.31,3.6-.54,7.53-.69,11.79-.15,4.25-.27,10.06-.35,17.42,2.45,0,4.98-.04,7.59-.11,2.61-.08,4.98-.17,7.13-.29,2.15-.12,3.68-.29,4.6-.52,1.46-.38,2.45-1.21,2.99-2.47.54-1.26,1.19-3.81,1.96-7.65l4.02.46c-.31,2.07-.54,4.18-.69,6.33-.15,2.15-.23,4.29-.23,6.44s.08,4.29.23,6.44c.15,2.15.38,4.29.69,6.44l-4.02.58c-.77-3.83-1.42-6.4-1.96-7.71-.54-1.3-1.53-2.11-2.99-2.42-.92-.23-2.45-.4-4.6-.52-2.15-.12-4.52-.21-7.13-.29-2.61-.08-5.14-.11-7.59-.11Z"/>
      <path class="cls-1" d="M543.84,85.5c0,3.68-.52,7.24-1.55,10.69-1.03,3.45-2.63,6.56-4.77,9.32-2.15,2.76-4.96,4.94-8.45,6.55-3.49,1.61-7.72,2.42-12.71,2.42-8.59,0-14.8-2.28-18.63-6.84-3.83-4.56-5.75-10.52-5.75-17.88,0-3.68.52-7.25,1.55-10.7,1.03-3.45,2.62-6.57,4.77-9.37,2.15-2.8,4.98-5.02,8.51-6.67,3.53-1.65,7.74-2.47,12.65-2.47,5.75,0,10.41,1.05,13.97,3.16,3.56,2.11,6.19,5.04,7.88,8.8,1.69,3.76,2.53,8.09,2.53,13ZM533.95,89.75c0-3.91-.44-7.67-1.32-11.27-.88-3.6-2.45-6.55-4.72-8.85-2.26-2.3-5.5-3.45-9.72-3.45-3.37,0-6.13.79-8.28,2.36-2.15,1.57-3.79,3.51-4.94,5.81s-1.96,4.6-2.42,6.9c-.46,2.3-.69,4.22-.69,5.75,0,3.76.5,7.3,1.5,10.64,1,3.33,2.65,6.06,4.94,8.17,2.3,2.11,5.41,3.16,9.31,3.16,3.07,0,5.65-.67,7.76-2.01,2.11-1.34,3.79-3.05,5.06-5.12,1.26-2.07,2.17-4.2,2.7-6.38.54-2.19.81-4.08.81-5.69Z"/>
      <path class="cls-1" d="M566.72,60.66l2.19,1.04c-.08.84-.13,2.13-.17,3.85-.04,1.73-.06,3.58-.06,5.58,1.69-2.84,3.66-5.06,5.92-6.67,2.26-1.61,4.37-2.78,6.33-3.51,1.96-.73,3.32-1.09,4.08-1.09.38,0,.98.4,1.78,1.21.81.8,1.61,1.82,2.42,3.05.81,1.23,1.36,2.49,1.67,3.79l-1.72,2.19c-1-.38-2.19-.75-3.57-1.09-1.38-.34-2.84-.52-4.37-.52-1.99,0-3.95.48-5.87,1.44-1.92.96-3.51,2.57-4.77,4.83-1.27,2.26-1.9,5.42-1.9,9.49,0,6.29.06,11.06.17,14.32.12,3.26.27,5.5.46,6.73.19,1.23.33,2.07.4,2.53.15.61,1.3,1.17,3.45,1.67,2.15.5,4.29.82,6.44.98l-.34,3.34c-1.23-.08-2.76-.13-4.6-.17-1.84-.04-3.68-.08-5.52-.12-1.84-.04-3.41-.06-4.71-.06-1.92,0-4.12.02-6.61.06-2.49.04-4.66.13-6.5.29l.34-3.34c.84-.08,1.82-.23,2.93-.46,1.11-.23,2.13-.54,3.05-.92.92-.38,1.42-.76,1.5-1.15.31-2.3.54-4.95.69-7.94.15-2.99.23-7.28.23-12.88s-.08-9.75-.23-12.48c-.15-2.72-.38-4.96-.69-6.73l-7.36-2.18-.23-2.99c1.38,0,3.01-.09,4.89-.29,1.88-.19,3.74-.46,5.58-.81,1.84-.34,3.41-.67,4.71-.98Z"/>
      <path class="cls-1" d="M629.51,64.11c.46-.69,1.21-1.65,2.24-2.88,1.03-1.23,2.19-2.34,3.45-3.33,1.27-1,2.43-1.5,3.51-1.5.38,0,.98.4,1.78,1.21.81.8,1.61,1.82,2.42,3.05.81,1.23,1.36,2.49,1.67,3.79l-1.73,2.19c-.54-.31-1.25-.56-2.13-.75-.88-.19-1.86-.29-2.93-.29-.77,0-1.61.1-2.53.29-.92.19-1.84.52-2.76.98,1.3,1.54,2.3,3.39,2.99,5.58.69,2.18,1.04,4.81,1.04,7.88s-.71,5.94-2.13,8.86c-1.42,2.91-3.66,5.33-6.73,7.25-3.07,1.92-7.09,2.88-12.08,2.88-1.76,0-3.45-.12-5.06-.35-1.3,1.69-2.34,3.16-3.1,4.43-.77,1.27-1.15,2.32-1.15,3.16,0,1,.59,1.69,1.78,2.07,1.19.38,3.08.58,5.69.58h8.62c7.36,0,12.82,1.23,16.39,3.68,3.57,2.45,5.35,5.9,5.35,10.35,0,3.14-1.23,6.3-3.68,9.49-2.45,3.18-6.06,5.81-10.81,7.88-4.75,2.07-10.58,3.1-17.48,3.1-3.45,0-6.77-.38-9.95-1.15-3.18-.77-5.81-1.96-7.88-3.57s-3.1-3.64-3.1-6.09c0-2.15.96-4.68,2.88-7.59,1.92-2.92,4.91-6.02,8.97-9.32-2.38-.54-4.18-1.3-5.4-2.3-1.23-1-1.84-2.11-1.84-3.33,0-1.53,1.02-3.37,3.05-5.52,2.03-2.15,4.47-4.37,7.3-6.67-3.68-1.15-6.54-3.18-8.57-6.09-2.03-2.91-3.05-7.05-3.05-12.42,0-2.99.73-5.94,2.19-8.86,1.46-2.91,3.74-5.33,6.84-7.25,3.1-1.92,7.11-2.88,12.02-2.88,2.76,0,5.33.25,7.71.75,2.38.5,4.45,1.4,6.21,2.7ZM600.88,129.08c0,2.83,1.07,5.21,3.22,7.13,2.15,1.92,5.44,2.88,9.89,2.88,4.14,0,7.74-.79,10.81-2.36,3.07-1.57,5.44-3.53,7.13-5.87,1.69-2.34,2.53-4.58,2.53-6.73s-.92-3.99-2.76-5.52c-1.84-1.53-5.02-2.3-9.54-2.3h-15.52c-1.92,2.15-3.35,4.31-4.31,6.5-.96,2.18-1.44,4.27-1.44,6.27ZM626.64,81.47c0-2.53-.27-5.02-.81-7.47-.54-2.45-1.59-4.5-3.16-6.15-1.57-1.65-3.89-2.47-6.96-2.47-2.38,0-4.33.54-5.87,1.61-1.53,1.08-2.68,2.4-3.45,3.97-.77,1.57-1.3,3.14-1.61,4.71-.31,1.57-.46,2.89-.46,3.97,0,2.3.33,4.6.98,6.9.65,2.3,1.78,4.22,3.39,5.75,1.61,1.54,3.79,2.3,6.56,2.3,2.99,0,5.29-.77,6.9-2.3,1.61-1.53,2.74-3.33,3.39-5.4.65-2.07,1.02-3.87,1.09-5.41Z"/>
      <path class="cls-1" d="M691.5,103.9l1.38,3.45c-2.38,1.92-5.16,3.58-8.34,5-3.18,1.42-6.69,2.13-10.52,2.13-5.67,0-10.33-1.13-13.97-3.39-3.64-2.26-6.33-5.27-8.05-9.03-1.72-3.76-2.59-7.9-2.59-12.42,0-3.68.52-7.25,1.55-10.7,1.03-3.45,2.62-6.55,4.77-9.31,2.15-2.76,4.98-4.96,8.51-6.61,3.53-1.65,7.74-2.47,12.65-2.47,2.76,0,5.48.65,8.16,1.96,2.68,1.3,4.91,3.39,6.67,6.27,1.76,2.88,2.65,6.69,2.65,11.44l-3.91,4.71c-.31-.08-.82-.12-1.55-.12h-2.7c-1.92,0-4.18.02-6.79.06-2.61.04-5.25.1-7.94.17-2.68.08-5.14.17-7.36.29-2.22.12-3.87.21-4.95.29v1.04c0,7.21,1.51,12.5,4.54,15.87,3.03,3.38,6.96,5.06,11.79,5.06,2.84,0,5.52-.3,8.05-.92,2.53-.61,5.17-1.53,7.94-2.76ZM684.02,76.64c0-2.61-.52-4.66-1.55-6.15-1.03-1.5-2.3-2.59-3.79-3.28-1.5-.69-2.93-1.04-4.31-1.04-3.76,0-6.9,1.48-9.43,4.43-2.53,2.95-4.22,6.38-5.06,10.29l23.8-.92c.23-1.15.35-2.26.35-3.33Z"/>
    </g>
  </g>
</svg>